<svg xmlns="http://www.w3.org/2000/svg" viewBox="0 0 200 400" width="200" height="400">
  <!-- 背景 -->
  <rect width="200" height="400" fill="#f8f9fa"/>
  
  <!-- 第一个字 (雨) -->
  <g transform="translate(100, 120)">
    <path d="M-40,-40 L40,-40 M-30,-30 L30,-30 M-20,-20 L20,-20 M0,-40 L0,40 M-25,0 L0,10 L25,0 M-30,20 L0,30 L30,20" 
          stroke="black" 
          stroke-width="3" 
          fill="none" 
          stroke-linecap="round"/>
  </g>
  
  <!-- 第二个字 (爱) -->
  <g transform="translate(100, 280)">
    <path d="M-35,-30 Q0,-50 35,-30 M-25,-10 L25,-10 M0,-30 L0,30 M-30,10 L30,10 M-20,25 Q0,35 20,25" 
          stroke="black" 
          stroke-width="3" 
          fill="none" 
          stroke-linecap="round"/>
  </g>
</svg>
